REM DIRINDEX 1\2\4,1\2\5,1\2\6,1\3\7,1\3\8,1\3\9,1\3\10
REM DIRNAME cjc058,folder01,folder02,folder03,folder04,folder05,folder06,folder07,folder08,folder09
TITLE ""
FILE "a_40.mp3" MP3
  TRACK 01 AUDIO
    TITLE "0:"
    INDEX 01 00:00:00
  TRACK 02 AUDIO
    TITLE "6:cjc058_0856"
    INDEX 01 00:00:15
  TRACK 03 AUDIO
    TITLE "0:"
    INDEX 01 00:03:21
  TRACK 04 AUDIO
    TITLE "4:cjc058_0857"
    INDEX 01 00:03:63
  TRACK 05 AUDIO
    TITLE "0:"
    INDEX 01 00:07:37
  TRACK 06 AUDIO
    TITLE "5:cjc058_0858"
    INDEX 01 00:07:66
  TRACK 07 AUDIO
    TITLE "0:"
    INDEX 01 00:10:10
  TRACK 08 AUDIO
    TITLE "4:cjc058_0859"
    INDEX 01 00:11:15
  TRACK 09 AUDIO
    TITLE "0:"
    INDEX 01 00:12:50
  TRACK 10 AUDIO
    TITLE "5:cjc058_0860"
    INDEX 01 00:12:73
  TRACK 11 AUDIO
    TITLE "0:"
    INDEX 01 00:15:13
  TRACK 12 AUDIO
    TITLE "4:cjc058_0861"
    INDEX 01 00:16:14
  TRACK 13 AUDIO
    TITLE "0:"
    INDEX 01 00:17:55
  TRACK 14 AUDIO
    TITLE "5:cjc058_0862"
    INDEX 01 00:18:07
  TRACK 15 AUDIO
    TITLE "0:"
    INDEX 01 00:19:67
  TRACK 16 AUDIO
    TITLE "4:cjc058_0863"
    INDEX 01 00:20:65
  TRACK 17 AUDIO
    TITLE "0:"
    INDEX 01 00:22:46
  TRACK 18 AUDIO
    TITLE "5:cjc058_0864"
    INDEX 01 00:23:01
  TRACK 19 AUDIO
    TITLE "0:"
    INDEX 01 00:25:37
  TRACK 20 AUDIO
    TITLE "4:cjc058_0865"
    INDEX 01 00:26:34
  TRACK 21 AUDIO
    TITLE "0:"
    INDEX 01 00:27:67
  TRACK 22 AUDIO
    TITLE "5:cjc058_0866"
    INDEX 01 00:28:19
  TRACK 23 AUDIO
    TITLE "0:"
    INDEX 01 00:30:34
  TRACK 24 AUDIO
    TITLE "4:cjc058_0867"
    INDEX 01 00:31:39
  TRACK 25 AUDIO
    TITLE "0:"
    INDEX 01 00:33:07
  TRACK 26 AUDIO
    TITLE "5:cjc058_0868"
    INDEX 01 00:33:32
  TRACK 27 AUDIO
    TITLE "0:"
    INDEX 01 00:35:53
  TRACK 28 AUDIO
    TITLE "4:cjc058_0869"
    INDEX 01 00:36:54
  TRACK 29 AUDIO
    TITLE "0:"
    INDEX 01 00:38:14
  TRACK 30 AUDIO
    TITLE "5:cjc058_0870"
    INDEX 01 00:38:41
  TRACK 31 AUDIO
    TITLE "0:"
    INDEX 01 00:39:70
  TRACK 32 AUDIO
    TITLE "4:cjc058_0871"
    INDEX 01 00:40:68
  TRACK 33 AUDIO
    TITLE "0:"
    INDEX 01 00:42:19
  TRACK 34 AUDIO
    TITLE "5:cjc058_0872"
    INDEX 01 00:42:47
  TRACK 35 AUDIO
    TITLE "0:"
    INDEX 01 00:43:70
  TRACK 36 AUDIO
    TITLE "4:cjc058_0873"
    INDEX 01 00:44:73
  TRACK 37 AUDIO
    TITLE "0:"
    INDEX 01 00:46:29
  TRACK 38 AUDIO
    TITLE "5:cjc058_0874"
    INDEX 01 00:46:56
  TRACK 39 AUDIO
    TITLE "0:"
    INDEX 01 00:48:61
  TRACK 40 AUDIO
    TITLE "4:cjc058_0875"
    INDEX 01 00:49:61
  TRACK 41 AUDIO
    TITLE "0:"
    INDEX 01 00:51:40
  TRACK 42 AUDIO
    TITLE "5:cjc058_0876"
    INDEX 01 00:51:69
  TRACK 43 AUDIO
    TITLE "0:"
    INDEX 01 00:54:25
  TRACK 44 AUDIO
    TITLE "4:cjc058_0877"
    INDEX 01 00:55:28
  TRACK 45 AUDIO
    TITLE "0:"
    INDEX 01 00:56:72
  TRACK 46 AUDIO
    TITLE "5:cjc058_0878"
    INDEX 01 00:57:25
  TRACK 47 AUDIO
    TITLE "0:"
    INDEX 01 00:59:71
  TRACK 48 AUDIO
    TITLE "4:cjc058_0879"
    INDEX 01 01:00:68
  TRACK 49 AUDIO
    TITLE "0:"
    INDEX 01 01:02:22
  TRACK 50 AUDIO
    TITLE "5:cjc058_0880"
    INDEX 01 01:02:50
  TRACK 51 AUDIO
    TITLE "0:"
    INDEX 01 01:04:13
  TRACK 52 AUDIO
    TITLE "4:cjc058_0881"
    INDEX 01 01:05:19
  TRACK 53 AUDIO
    TITLE "0:"
    INDEX 01 01:06:45
  TRACK 54 AUDIO
    TITLE "5:cjc058_0882"
    INDEX 01 01:07:02
  TRACK 55 AUDIO
    TITLE "0:"
    INDEX 01 01:08:23
  TRACK 56 AUDIO
    TITLE "4:cjc058_0883"
    INDEX 01 01:09:22
  TRACK 57 AUDIO
    TITLE "0:"
    INDEX 01 01:10:61
  TRACK 58 AUDIO
    TITLE "5:cjc058_0884"
    INDEX 01 01:11:11
  TRACK 59 AUDIO
    TITLE "0:"
    INDEX 01 01:13:59
  TRACK 60 AUDIO
    TITLE "4:cjc058_0885"
    INDEX 01 01:14:61
  TRACK 61 AUDIO
    TITLE "0:"
    INDEX 01 01:16:58
  TRACK 62 AUDIO
    TITLE "5:cjc058_0886"
    INDEX 01 01:17:10
  TRACK 63 AUDIO
    TITLE "0:"
    INDEX 01 01:18:35
  TRACK 64 AUDIO
    TITLE "4:cjc058_0887"
    INDEX 01 01:19:34
  TRACK 65 AUDIO
    TITLE "0:"
    INDEX 01 01:20:73
  TRACK 66 AUDIO
    TITLE "5:cjc058_0888"
    INDEX 01 01:21:25
  TRACK 67 AUDIO
    TITLE "0:"
    INDEX 01 01:23:01
  TRACK 68 AUDIO
    TITLE "4:cjc058_0889"
    INDEX 01 01:24:02
  TRACK 69 AUDIO
    TITLE "0:"
    INDEX 01 01:25:43
  TRACK 70 AUDIO
    TITLE "5:cjc058_0890"
    INDEX 01 01:25:72
  TRACK 71 AUDIO
    TITLE "0:"
    INDEX 01 01:27:28
  TRACK 72 AUDIO
    TITLE "4:cjc058_0891"
    INDEX 01 01:28:27
  TRACK 73 AUDIO
    TITLE "0:"
    INDEX 01 01:29:68
  TRACK 74 AUDIO
    TITLE "5:cjc058_0892"
    INDEX 01 01:30:20
  TRACK 75 AUDIO
    TITLE "0:"
    INDEX 01 01:31:49
  TRACK 76 AUDIO
    TITLE "4:cjc058_0893"
    INDEX 01 01:32:47
  TRACK 77 AUDIO
    TITLE "0:"
    INDEX 01 01:34:22
  TRACK 78 AUDIO
    TITLE "5:cjc058_0894"
    INDEX 01 01:34:52
  TRACK 79 AUDIO
    TITLE "0:"
    INDEX 01 01:36:07
  TRACK 80 AUDIO
    TITLE "4:cjc058_0895"
    INDEX 01 01:37:09
  TRACK 81 AUDIO
    TITLE "0:"
    INDEX 01 01:39:29
  TRACK 82 AUDIO
    TITLE "5:cjc058_0896"
    INDEX 01 01:39:57
  TRACK 83 AUDIO
    TITLE "0:"
    INDEX 01 01:41:40
  TRACK 84 AUDIO
    TITLE "4:cjc058_0897"
    INDEX 01 01:42:43
  TRACK 85 AUDIO
    TITLE "0:"
    INDEX 01 01:45:02
  TRACK 86 AUDIO
    TITLE "5:cjc058_0898"
    INDEX 01 01:45:30
  TRACK 87 AUDIO
    TITLE "0:"
    INDEX 01 01:47:44
  TRACK 88 AUDIO
    TITLE "4:cjc058_0899"
    INDEX 01 01:48:46
  TRACK 89 AUDIO
    TITLE "0:"
    INDEX 01 01:50:31
  TRACK 90 AUDIO
    TITLE "5:cjc058_0900"
    INDEX 01 01:50:60
  TRACK 91 AUDIO
    TITLE "0:"
    INDEX 01 01:52:22
  TRACK 92 AUDIO
    TITLE "4:cjc058_0901"
    INDEX 01 01:53:25
  TRACK 93 AUDIO
    TITLE "0:"
    INDEX 01 01:54:50
  TRACK 94 AUDIO
    TITLE "5:cjc058_0902"
    INDEX 01 01:55:03
  TRACK 95 AUDIO
    TITLE "0:"
    INDEX 01 01:57:43
  TRACK 96 AUDIO
    TITLE "4:cjc058_0903"
    INDEX 01 01:58:46
  TRACK 97 AUDIO
    TITLE "0:"
    INDEX 01 02:00:24
  TRACK 98 AUDIO
    TITLE "5:cjc058_0904"
    INDEX 01 02:00:51
  TRACK 99 AUDIO
    TITLE "0:"
    INDEX 01 02:04:31
  TRACK 100 AUDIO
    TITLE "4:cjc058_0905"
    INDEX 01 02:05:34
  TRACK 101 AUDIO
    TITLE "0:"
    INDEX 01 02:06:73
  TRACK 102 AUDIO
    TITLE "5:cjc058_0906"
    INDEX 01 02:07:26
  TRACK 103 AUDIO
    TITLE "0:"
    INDEX 01 02:09:40
  TRACK 104 AUDIO
    TITLE "4:cjc058_0907"
    INDEX 01 02:10:45
  TRACK 105 AUDIO
    TITLE "0:"
    INDEX 01 02:12:01
  TRACK 106 AUDIO
    TITLE "5:cjc058_0908"
    INDEX 01 02:12:31
  TRACK 107 AUDIO
    TITLE "0:"
    INDEX 01 02:14:43
  TRACK 108 AUDIO
    TITLE "4:cjc058_0909"
    INDEX 01 02:15:45
  TRACK 109 AUDIO
    TITLE "0:"
    INDEX 01 02:17:22
  TRACK 110 AUDIO
    TITLE "5:cjc058_0910"
    INDEX 01 02:17:51
  TRACK 111 AUDIO
    TITLE "0:"
    INDEX 01 02:20:40
  TRACK 112 AUDIO
    TITLE "4:cjc058_0911"
    INDEX 01 02:21:39
  TRACK 113 AUDIO
    TITLE "0:"
    INDEX 01 02:23:01
  TRACK 114 AUDIO
    TITLE "5:cjc058_0912"
    INDEX 01 02:23:28
  TRACK 115 AUDIO
    TITLE "0:"
    INDEX 01 02:24:71
  TRACK 116 AUDIO
    TITLE "4:cjc058_0913"
    INDEX 01 02:25:74
  TRACK 117 AUDIO
    TITLE "0:"
    INDEX 01 02:27:54
  TRACK 118 AUDIO
    TITLE "5:cjc058_0914"
    INDEX 01 02:28:04
  TRACK 119 AUDIO
    TITLE "0:"
    INDEX 01 02:30:44
  TRACK 120 AUDIO
    TITLE "4:cjc058_0915"
    INDEX 01 02:31:48
  TRACK 121 AUDIO
    TITLE "0:"
    INDEX 01 02:33:25
  TRACK 122 AUDIO
    TITLE "5:cjc058_0916"
    INDEX 01 02:33:50
  TRACK 123 AUDIO
    TITLE "0:"
    INDEX 01 02:35:45
  TRACK 124 AUDIO
    TITLE "4:cjc058_0917"
    INDEX 01 02:36:49
  TRACK 125 AUDIO
    TITLE "0:"
    INDEX 01 02:38:06
  TRACK 126 AUDIO
    TITLE "5:cjc058_0918"
    INDEX 01 02:38:34
  TRACK 127 AUDIO
    TITLE "0:"
    INDEX 01 02:39:61
  TRACK 128 AUDIO
    TITLE "4:cjc058_0919"
    INDEX 01 02:40:62
  TRACK 129 AUDIO
    TITLE "0:"
    INDEX 01 02:42:34
  TRACK 130 AUDIO
    TITLE "5:cjc058_0920"
    INDEX 01 02:42:57
  TRACK 131 AUDIO
    TITLE "0:"
    INDEX 01 02:44:19
